<mxfile host="app.diagrams.net" modified="2024-02-04T09:45:17.630Z" agent="Mozilla/5.0 (Macintosh; Intel Mac OS X 10_15_7) AppleWebKit/537.36 (KHTML, like Gecko) Chrome/121.0.0.0 Safari/537.36" version="23.1.1" etag="R_aH2nn7M3p-VF__EWPi" type="github">
  <diagram name="第 1 页" id="xCO-mey1Z6DFQYFOg_1o">
    <mxGraphModel>
      <root>
        <mxCell id="0" />
        <mxCell id="1" parent="0" />
      </root>
    </mxGraphModel>
  </diagram>
</mxfile>
